{"title":"Sophia Sutra - NaughtyBookWorms","uid":11600624,"size":435277452,"categoryP":"porn","categoryS":"movie_clips","magnet":"?xt=urn:btih:d6de06077226844061cf086b3a46f0db8b62b1be&amp;dn=Sophia+Sutra+-+NaughtyBookWorms&amp;tr=udp%3A%2F%2Ftracker.openbittorrent.com%3A80&amp;tr=udp%3A%2F%2Fopen.demonii.com%3A1337&amp;tr=udp%3A%2F%2Ftracker.coppersurfer.tk%3A6969&amp;tr=udp%3A%2F%2Fexodus.desync.com%3A6969","seeders":0,"leechers":2,"uploader":"athklym","files":-1,"time":1417339912,"description":" &lt;a href=&quot;http://bayimg.com/maHChaaGj&quot; rel=&quot;nofollow&quot; target=&quot;_NEW&quot;&gt;http://bayimg.com/maHChaaGj&lt;/a&gt;\n\nSophia_Sutra_NaughtyBookWorms.avi\nFormat                                   : AVI\nFormat/Info                              : Audio Video Interleave\nFile size                                : 415 MiB\nDuration                                 : 28mn 0s\nOverall bit rate                         : 2 072 Kbps\nWriting application                      : Lavf52.61.0\n\nVideo\nID                                       : 0\nFormat                                   : MPEG-4 Visual\nFormat profile                           : Simple@L3\nFormat settings, BVOP                    : No\nFormat settings, QPel                    : No\nFormat settings, GMC                     : No warppoints\nFormat settings, Matrix                  : Default (H.263)\nCodec ID                                 : XVID\nCodec ID/Hint                            : XviD\nDuration                                 : 28mn 0s\nBit rate                                 : 1 802 Kbps\nWidth                                    : 1 280 pixels\nHeight                                   : 702 pixels\nDisplay aspect ratio                     : 16:9\nFrame rate                               : 29.970 fps\nColor space                              : YUV\nChroma subsampling                       : 4:2:0\nBit depth                                : 8 bits\nScan type                                : Progressive\nCompression mode                         : Lossy\nBits/(Pixel*Frame)                       : 0.067\nStream size                              : 361 MiB (87%)\nWriting library                          : XviD 1.2.1 (UTC 2008-12-04)\n\nAudio\nID                                       : 1\nFormat                                   : MPEG Audio\nFormat version                           : Version 1\nFormat profile                           : Layer 3\nMode                                     : Joint stereo\nMode extension                           : MS Stereo\nCodec ID                                 : 55\nCodec ID/Hint                            : MP3\nDuration                                 : 28mn 0s\nBit rate mode                            : Constant\nBit rate                                 : 256 Kbps\nChannel(s)                               : 2 channels\nSampling rate                            : 44.1 KHz\nCompression mode                         : Lossy\nStream size                              : 51.3 MiB (12%)\nAlignment                                : Aligned on interleaves\nInterleave, duration                     : 26 ms (0.78 video frame)\nWriting library                          : LAME3.97","torrent":{"xt":"urn:btih:d6de06077226844061cf086b3a46f0db8b62b1be","amp;dn":"Sophia+Sutra+-+NaughtyBookWorms","amp;tr":["udp%3A%2F%2Ftracker.openbittorrent.com%3A80","udp%3A%2F%2Fopen.demonii.com%3A1337","udp%3A%2F%2Ftracker.coppersurfer.tk%3A6969","udp%3A%2F%2Fexodus.desync.com%3A6969"],"infoHash":"d6de06077226844061cf086b3a46f0db8b62b1be","infoHashBuffer":{"type":"Buffer","data":[214,222,6,7,114,38,132,64,97,207,8,107,58,70,240,219,139,98,177,190]},"announce":[],"urlList":[]}}